<svg width="23" height="24" viewBox="0 0 23 24" fill="none" xmlns="http://www.w3.org/2000/svg">
<mask id="mask0_58_40" style="mask-type:alpha" maskUnits="userSpaceOnUse" x="0" y="0" width="23" height="24">
<path fill-rule="evenodd" clip-rule="evenodd" d="M22.2128 9.86055H11.5761V14.1707H17.6987C17.128 16.9088 14.7412 18.4808 11.5761 18.4808C7.84031 18.4808 4.8309 15.5397 4.8309 11.8888C4.8309 8.23792 7.84031 5.29691 11.5761 5.29691C13.1846 5.29691 14.6374 5.85469 15.7789 6.76742L19.0996 3.52217C17.0761 1.79812 14.4818 0.733276 11.5761 0.733276C5.24599 0.733276 0.161133 5.70257 0.161133 11.8888C0.161133 18.0751 5.24599 23.0444 11.5761 23.0444C17.2836 23.0444 22.4722 18.9878 22.4722 11.8888C22.4722 11.2296 22.3685 10.5197 22.2128 9.86055Z" fill="white"/>
</mask>
<g mask="url(#mask0_58_40)">
<path d="M-0.876465 18.4807V5.29688L7.94421 11.8888L-0.876465 18.4807Z" fill="#FBBC05"/>
</g>
<mask id="mask1_58_40" style="mask-type:alpha" maskUnits="userSpaceOnUse" x="0" y="0" width="23" height="24">
<path fill-rule="evenodd" clip-rule="evenodd" d="M22.2128 9.86055H11.5761V14.1707H17.6987C17.128 16.9088 14.7412 18.4808 11.5761 18.4808C7.84031 18.4808 4.8309 15.5397 4.8309 11.8888C4.8309 8.23792 7.84031 5.29691 11.5761 5.29691C13.1846 5.29691 14.6374 5.85469 15.7789 6.76742L19.0996 3.52217C17.0761 1.79812 14.4818 0.733276 11.5761 0.733276C5.24599 0.733276 0.161133 5.70257 0.161133 11.8888C0.161133 18.0751 5.24599 23.0444 11.5761 23.0444C17.2836 23.0444 22.4722 18.9878 22.4722 11.8888C22.4722 11.2296 22.3685 10.5197 22.2128 9.86055Z" fill="white"/>
</mask>
<g mask="url(#mask1_58_40)">
<path d="M-0.876465 5.29677L7.94421 11.8887L11.5762 8.79556L24.029 6.81798V-0.281006H-0.876465V5.29677Z" fill="#EA4335"/>
</g>
<mask id="mask2_58_40" style="mask-type:alpha" maskUnits="userSpaceOnUse" x="0" y="0" width="23" height="24">
<path fill-rule="evenodd" clip-rule="evenodd" d="M22.2128 9.86055H11.5761V14.1707H17.6987C17.128 16.9088 14.7412 18.4808 11.5761 18.4808C7.84031 18.4808 4.8309 15.5397 4.8309 11.8888C4.8309 8.23792 7.84031 5.29691 11.5761 5.29691C13.1846 5.29691 14.6374 5.85469 15.7789 6.76742L19.0996 3.52217C17.0761 1.79812 14.4818 0.733276 11.5761 0.733276C5.24599 0.733276 0.161133 5.70257 0.161133 11.8888C0.161133 18.0751 5.24599 23.0444 11.5761 23.0444C17.2836 23.0444 22.4722 18.9878 22.4722 11.8888C22.4722 11.2296 22.3685 10.5197 22.2128 9.86055Z" fill="white"/>
</mask>
<g mask="url(#mask2_58_40)">
<path d="M-0.876465 18.4806L14.6894 6.81798L18.7884 7.32506L24.029 -0.281006V24.0584H-0.876465V18.4806Z" fill="#34A853"/>
</g>
<mask id="mask3_58_40" style="mask-type:alpha" maskUnits="userSpaceOnUse" x="0" y="0" width="23" height="24">
<path fill-rule="evenodd" clip-rule="evenodd" d="M22.2128 9.86055H11.5761V14.1707H17.6987C17.128 16.9088 14.7412 18.4808 11.5761 18.4808C7.84031 18.4808 4.8309 15.5397 4.8309 11.8888C4.8309 8.23792 7.84031 5.29691 11.5761 5.29691C13.1846 5.29691 14.6374 5.85469 15.7789 6.76742L19.0996 3.52217C17.0761 1.79812 14.4818 0.733276 11.5761 0.733276C5.24599 0.733276 0.161133 5.70257 0.161133 11.8888C0.161133 18.0751 5.24599 23.0444 11.5761 23.0444C17.2836 23.0444 22.4722 18.9878 22.4722 11.8888C22.4722 11.2296 22.3685 10.5197 22.2128 9.86055Z" fill="white"/>
</mask>
<g mask="url(#mask3_58_40)">
<path d="M24.0289 24.0585L7.9441 11.8888L5.86865 10.3676L24.0289 5.29688V24.0585Z" fill="#4285F4"/>
</g>
</svg>
