<svg width="23" height="23" viewBox="0 0 23 23" fill="none" xmlns="http://www.w3.org/2000/svg">
<path d="M21.0318 22.9182C21.7083 22.9182 22.257 22.3695 22.257 21.6928V1.94271C22.257 1.26588 21.7084 0.717407 21.0318 0.717407H1.2817C0.604871 0.717407 0.0563965 1.26588 0.0563965 1.94271V21.6928C0.0563965 22.3694 0.604785 22.9182 1.2817 22.9182H21.0318Z" fill="#3C5A99"/>
<path d="M15.3741 22.918V14.3207H18.2599L18.692 10.9701H15.3741V8.83102C15.3741 7.86096 15.6435 7.1999 17.0346 7.1999L18.8088 7.19912V4.20237C18.5019 4.16154 17.4487 4.07031 16.2234 4.07031C13.6654 4.07031 11.9141 5.63175 11.9141 8.4992V10.9701H9.021V14.3207H11.9141V22.918H15.3741Z" fill="white"/>
</svg>
